<?xml version="1.0" encoding="utf-8"?>
<!-- Generator: Adobe Illustrator 25.0.0, SVG Export Plug-In . SVG Version: 6.00 Build 0)  -->
<svg version="1.1" id="Слой_1" xmlns="http://www.w3.org/2000/svg" xmlns:xlink="http://www.w3.org/1999/xlink" x="0px" y="0px"
	 viewBox="0 0 283.46 283.46" style="enable-background:new 0 0 283.46 283.46;" xml:space="preserve">
<path d="M253.37,56.64l-23.99-11.86V32.29c0-15.85-12.9-28.75-28.75-28.75H31.47c-15.85,0-28.75,12.9-28.75,28.75v169.16
	c0,15.85,12.9,28.75,28.75,28.75h16.86l61.03,45.74c0.49,0.36,1,0.68,1.55,0.95c7.24,3.58,15.01,5.36,22.76,5.36
	c9.38,0,18.72-2.6,27.03-7.76c9.52-5.91,16.62-14.52,20.6-24.53l26.6,13.15c7.24,3.58,15.01,5.36,22.76,5.36
	c9.38,0,18.72-2.6,27.03-7.76c15.17-9.42,24.23-25.71,24.23-43.57V102.61C281.93,82.96,270.98,65.35,253.37,56.64z M200.63,23.31
	c4.95,0,8.98,4.03,8.98,8.98V35l-23.65-11.69H200.63z M135.28,56.52l-50.67-33.2h50.67V56.52z M22.49,201.45V32.29
	c0-4.95,4.03-8.98,8.98-8.98h11.26v187.12H31.47C26.52,210.43,22.49,206.41,22.49,201.45z M165.16,230.92
	c0,10.97-5.57,20.98-14.89,26.77c-9.08,5.64-20.17,6.31-29.83,1.85L62.5,216.12V32.47l84.07,55.09c0.33,0.22,0.68,0.42,1.04,0.59
	c10.82,5.35,17.55,16.18,17.55,28.25V230.92z M262.15,217.14c0,10.97-5.57,20.98-14.89,26.77c-9.32,5.79-20.76,6.34-30.6,1.48
	l-31.74-15.69V116.4c0-19.44-10.71-36.89-27.99-45.69l-1.88-1.23V30.09l89.55,44.28c10.82,5.35,17.55,16.18,17.55,28.25V217.14z"/>
</svg>
