<?xml version="1.0" encoding="utf-8"?>
<!-- Generator: Adobe Illustrator 25.0.0, SVG Export Plug-In . SVG Version: 6.00 Build 0)  -->
<svg version="1.1" id="Слой_1" xmlns="http://www.w3.org/2000/svg" xmlns:xlink="http://www.w3.org/1999/xlink" x="0px" y="0px"
	 viewBox="0 0 283.46 283.46" style="enable-background:new 0 0 283.46 283.46;" xml:space="preserve">
<g>
	<path d="M269.16,1.97c-5.55,0-10.04,4.5-10.04,10.04v103.36h-51.93c-0.15-0.67-0.37-1.33-0.66-1.96c-1.54-3.3-3.17-6.69-5.01-10.4
		c1.06-1.35,1.83-2.63,2.34-3.89c1.68-4.14,3.34-8.36,4.94-12.44c1.02-2.58,2.03-5.17,3.06-7.75c2.84-1.62,6.32-3.97,8.57-7.92
		c1.23-2.16,1.98-4.24,2.28-6.33l0.23-0.45v-4.93l-0.05-0.26c-0.04-0.22-0.08-0.45-0.12-0.67c-0.1-0.59-0.21-1.25-0.42-1.94
		c-1.94-6.41-5.89-10.78-11.77-13.03l-0.03-0.97c-0.06-2.27-0.12-4.62-0.3-6.96c-0.79-10.38-5.62-18.81-14.33-25.06
		c-4.34-3.11-9.07-5-14.05-5.62c-2.38-0.29-4.76-0.29-7.05-0.28l-1.45,0c-18.38-0.06-37.39-0.13-56.56-0.14
		c-4.1,0.01-9.46,0.04-14.79,0.37c-3.62,0.22-7.24,1.42-11.4,3.77c-9.29,5.24-14.99,13.1-16.95,23.37c-0.61,3.22-0.66,6.47-0.7,9.62
		l-0.01,0.91c0,0.29-0.01,0.72-0.04,1.04l-0.4,0.04l-0.43,0.2c-5.96,2.76-9.74,7.44-11.24,13.91c-0.09,0.37-0.15,0.75-0.2,1.13
		l-0.06,0.38l-0.04,4.58l0.06,0.29c0.06,0.26,0.11,0.52,0.16,0.78c0.13,0.66,0.27,1.4,0.52,2.16c1.67,5.05,4.85,8.89,9.44,11.42
		c0.73,0.4,1.06,0.78,1.36,1.57c2.08,5.47,4.27,11,6.39,16.34l0.78,1.97c0.61,1.54,1.4,3.27,2.65,4.81
		c-0.63,1.29-1.26,2.58-1.89,3.87c-0.91,1.86-1.82,3.73-2.73,5.59c-0.45,0.91-0.76,1.88-0.95,2.86H24.85V12.01
		c0-5.55-4.5-10.04-10.04-10.04S4.76,6.46,4.76,12.01v259.45c0,5.55,4.5,10.04,10.04,10.04s10.04-4.5,10.04-10.04V168.09h234.26
		v103.36c0,5.55,4.5,10.04,10.04,10.04s10.04-4.5,10.04-10.04V12.01C279.2,6.46,274.7,1.97,269.16,1.97z M198.57,39.99
		c-0.02,0.94-0.05,1.89-0.05,2.87c-3.98,1.08-7.36,3.38-9.83,6.69c-1.39,1.87-2.38,3.92-3.36,5.96c-1.32,2.74-2.57,5.54-3.77,8.28
		c-0.5-0.13-1-0.26-1.5-0.39c-2.88-0.76-5.86-1.54-8.86-2.17c-3.89-0.81-8.02-1.52-13-2.25c-7.94-1.15-16.55-1.36-26.32-0.63
		c-5.74,0.43-11.46,1.42-17.31,2.49c-2.87,0.52-5.71,1.24-8.45,1.93c-1.42,0.36-2.84,0.72-4.27,1.05c-0.61-1.32-1.2-2.65-1.8-3.98
		c-1.02-2.28-2.08-4.64-3.2-6.95c-2.43-5-6.41-8.37-11.85-10.02c-0.01-0.76-0.03-1.51-0.05-2.25c-0.08-2.77-0.16-5.39,0.54-7.8
		c2.54-8.84,8.2-14.27,16.83-16.15c2.46-0.54,5.12-0.54,7.93-0.54c0.61,0,1.23,0,1.84-0.01c10.38-0.11,20.78-0.16,30.89-0.16
		c10.8,0.01,21.79,0.1,32.42,0.18l1.18,0.01c7.61,0.06,13.48,3.05,17.93,9.14c2.82,3.86,4.21,8.28,4.12,13.16
		C198.59,38.97,198.58,39.48,198.57,39.99z M92.33,71.39c0.25,0.55,0.5,1.09,0.76,1.63c0.3,0.63,0.59,1.26,0.88,1.9
		c0.86,1.93,2.63,2.76,4.63,2.17c2.35-0.7,5.46-1.61,8.61-2.48c6.04-1.65,12.47-2.94,19.12-3.83c7.31-0.98,14.65-1.28,21.82-0.92
		c8.17,0.42,16.04,1.58,23.4,3.47c3.63,0.93,7.32,2.04,10.88,3.11l2.02,0.61c2.19,0.65,3.99-0.16,4.93-2.24
		c1.56-3.44,3.15-6.87,4.73-10.3l2.35-5.08c0.92-2,1.86-3.53,3.46-4.51c2.11-1.29,4.76-1.37,7.09-0.2c2.3,1.15,3.8,3.28,4.03,5.69
		c0.36,3.86-1.14,6.4-4.57,7.76c-2.55,1.01-4.21,2.73-5.23,5.42c-1.79,4.72-3.69,9.5-5.53,14.13l-1.76,4.43
		c-0.17,0.43-0.36,0.85-0.55,1.27c-0.13,0.3-0.27,0.59-0.4,0.9c-0.98,2.29-2.87,3.55-5.61,3.75c-6.36,0.46-12.72,0.52-18.88,0.58
		c-6.25,0.06-12.61,0.05-18.76,0.03c-1.78,0-3.55-0.01-5.32-0.01v-0.06l-12.86,0.01c-8.88,0.01-18.06,0.02-27.08-0.04
		c-2.59-0.02-5.97-0.1-9.16-0.66c-2.52-0.44-4.15-1.66-4.96-3.74c-1.44-3.65-2.9-7.29-4.36-10.93l-2.55-6.35
		c-0.66-1.65-1.33-3.31-1.97-4.97c-0.51-1.34-1.44-2.32-2.85-3.02l-0.6-0.3c-1.28-0.62-2.48-1.21-3.42-1.96
		c-3.23-2.54-2.36-6.48-1.83-8.06c0.87-2.6,3.66-4.61,6.49-4.66c3.33-0.07,5.62,1.29,7.01,4.12c1.44,2.96,2.81,6.05,4.13,9.04
		C91.06,68.56,91.69,69.98,92.33,71.39z M102.45,114.46c0.77-1.44,1.39-2.68,1.93-3.82c18.56,0.02,37.11,0.02,55.67,0.02l11.36,0
		c2.57,0,5.14,0,7.71-0.01c0.8,1.58,1.62,3.15,2.43,4.72h-79.58C102.13,115.07,102.29,114.77,102.45,114.46z M24.85,148.25v-13.04
		h234.26v13.04H24.85z"/>
	<path d="M186.62,214.52c-7.7-0.33-14.33,4.21-16.47,11.34c-2.17,7.22,0.87,14.89,7.23,18.23c0.65,0.34,0.81,0.55,0.82,0.55
		c0.01,0.04,0.05,0.29-0.16,1.1c-0.07,0.29-0.12,0.6-0.17,0.9c-0.02,0.12-0.03,0.24-0.06,0.35c-1.76,7.06-8.29,11.89-15.19,11.22
		c-7.5-0.72-12.94-6.11-13.67-13.55c0,0,0.01,0,0.01-0.01c6.54-3.29,9.96-10.56,8.33-17.67c-1.62-7.06-7.86-12.31-14.83-12.48
		c-7.66-0.15-14.14,4.45-16.15,11.53c-2.05,7.23,1.14,14.9,7.58,18.24c0.32,0.17,0.49,0.29,0.57,0.36
		c-0.01,0.11-0.04,0.31-0.13,0.64c-0.13,0.47-0.18,0.9-0.23,1.24c-0.02,0.15-0.03,0.3-0.07,0.44c-1.75,7.06-8.27,11.9-15.18,11.25
		c-7.54-0.71-13.01-6.14-13.69-13.56c6.35-3.22,9.9-10.43,8.45-17.24c-1.59-7.47-7.81-12.78-15.11-12.91
		c-7.73-0.14-14.34,4.86-16.1,12.15c-1.77,7.36,1.58,14.56,8.35,18.04c0.26,9.02,4.97,17.48,12.67,22.7
		c4.93,3.34,10.66,5.06,16.41,5.06c3.48,0,6.98-0.63,10.3-1.91c4.49-1.73,8.37-4.41,11.57-8c7.67,8.08,16.87,11.22,27.38,9.35
		c13.04-2.33,23.08-13.94,23.52-27.18c6.53-3.28,10.03-10.41,8.52-17.37C199.58,220.1,193.61,214.83,186.62,214.52z"/>
	<path d="M148.95,211.27v-22.11c2.78-0.79,4.94-2.22,6.45-4.28c2.13-2.9,2.8-6.84,1.99-11.71l-0.39-2.37h-30.83l-0.29,2.51
		c-0.99,8.62,1.92,13.95,8.66,15.86v22.1H148.95z"/>
	<path d="M142.11,267.03c-1.95-0.09-3.79,0.55-5.21,1.81c-1.44,1.28-2.29,3.05-2.38,4.99c-0.19,4,2.86,7.4,6.8,7.6
		c0.12,0.01,0.24,0.01,0.36,0.01c3.84,0,7.04-2.98,7.23-6.8c0.1-1.94-0.55-3.79-1.81-5.21
		C145.82,267.97,144.05,267.13,142.11,267.03z"/>
</g>
</svg>
