<?xml version="1.0" encoding="utf-8"?>
<!-- Generator: Adobe Illustrator 25.0.0, SVG Export Plug-In . SVG Version: 6.00 Build 0)  -->
<svg version="1.1" id="Слой_1" xmlns="http://www.w3.org/2000/svg" xmlns:xlink="http://www.w3.org/1999/xlink" x="0px" y="0px"
	 viewBox="0 0 283.46 283.46" style="enable-background:new 0 0 283.46 283.46;" xml:space="preserve">
<g>
	<path d="M259.47,27.04V57.8h19.07V27.04c0-12.19-9.92-22.11-22.12-22.11h-30.75v19.07h30.75C258.1,23.99,259.47,25.36,259.47,27.04
		z"/>
	<path d="M23.99,256.42v-30.75H4.93v30.75c0,12.19,9.92,22.11,22.12,22.11H57.8v-19.07H27.04C25.36,259.47,23.99,258.1,23.99,256.42
		z"/>
	<path d="M273.85,177.64c-3.69-8.46-7.7-16.08-12.27-23.29c-11.99-18.92-26.77-37.18-46.53-57.46c-2.48-2.55-4.92-3.79-7.45-3.79
		c-0.01,0-0.01,0-0.02,0c-2.56,0-5.04,1.26-7.59,3.86c-11.39,11.6-21.81,23.51-30.98,35.39c-8.67,11.23-19.57,26.34-26.99,43.57
		c-4.42,10.27-6.39,18.52-6.38,26.75l0.01,0.14c0.09,1.02,0.17,2.04,0.25,3.06c0.17,2.22,0.35,4.51,0.65,6.76
		c2.83,21.02,12,37.91,27.23,50.2c13.62,10.98,27.96,16.48,42.86,16.48c9.7,0,19.65-2.33,29.79-7c20.22-9.32,33.75-26,40.18-49.6
		C280.93,206.91,280,191.75,273.85,177.64z M258.71,217.01c-4.41,17.23-14.05,29.89-28.65,37.62c-19.98,10.59-44.71,5.8-60.15-11.63
		c-10.83-12.24-15.96-26.91-15.25-43.61c0.3-6.92,3.07-13.28,5.88-19.21c5.8-12.23,13.73-24.43,24.95-38.41
		c5.08-6.33,10.26-12.39,15.75-18.8c2.03-2.38,4.08-4.77,6.14-7.2c1.09,1.21,2.16,2.4,3.21,3.57c3.06,3.4,5.96,6.6,8.78,9.89
		c9.86,11.49,21.15,25.42,30.17,41.54c3.14,5.61,6,11.77,8.75,18.82C261.36,197.46,261.49,206.18,258.71,217.01z"/>
	<path d="M179.95,176.72c-4.31-0.42-8.05,1.88-9.79,6c-3.2,7.59-5.05,16.1-5.22,23.97v0.03c0,7.32,1.18,14.28,3.23,19.09
		c1.54,3.6,4.92,5.91,8.27,5.91c0.69,0,1.37-0.1,2.04-0.3c2.93-0.89,5.13-2.66,6.36-5.11c1.2-2.39,1.37-5.21,0.48-8.14
		c-1.03-3.39-1.68-6.73-1.95-9.92c-0.52-6.34,1.42-12.38,3.6-17.96c0.79-2.01,1.08-4.28,0.79-6.23
		C187.2,180.19,183.91,177.1,179.95,176.72z"/>
	<path d="M118.23,76.04c-12.77-18.93-14.81-46.21-7.45-54.44c3.65-4.09,3.3-10.36-0.79-14.01c-4.09-3.65-10.36-3.3-14.01,0.79
		c-15.89,17.79-9.7,55.79,5.8,78.76c0.7,1.04,1.5,2.16,2.35,3.37c10.04,14.14,22.53,31.74-8.58,58.9c-4.13,3.6-4.55,9.87-0.95,14
		c1.96,2.25,4.71,3.4,7.48,3.4c2.31,0,4.64-0.81,6.52-2.45c44.62-38.95,21.56-71.45,11.71-85.33
		C119.56,77.96,118.85,76.96,118.23,76.04z"/>
	<path d="M79.74,88.97c-0.76-1.07-1.47-2.06-2.09-2.99C64.88,67.06,62.84,39.78,70.2,31.54c3.65-4.09,3.3-10.36-0.79-14.01
		c-4.09-3.65-10.36-3.3-14.01,0.79c-15.89,17.79-9.7,55.79,5.8,78.76c0.7,1.04,1.5,2.16,2.35,3.37
		c10.04,14.14,22.53,31.74-8.58,58.9c-4.13,3.6-4.55,9.87-0.95,14c1.96,2.25,4.71,3.4,7.48,3.4c2.31,0,4.64-0.81,6.52-2.45
		C112.65,135.35,89.59,102.85,79.74,88.97z"/>
	<path d="M22.77,90.51c10.04,14.14,22.53,31.74-8.58,58.9c-4.13,3.6-4.55,9.87-0.95,14c1.96,2.25,4.71,3.4,7.48,3.4
		c2.31,0,4.64-0.81,6.52-2.45C71.86,125.4,48.8,92.9,38.95,79.03c-0.76-1.07-1.47-2.06-2.09-2.99
		C24.09,57.11,22.05,29.83,29.41,21.6c3.65-4.09,3.3-10.36-0.79-14.01c-4.09-3.65-10.36-3.3-14.01,0.79
		c-15.89,17.79-9.7,55.79,5.8,78.76C21.11,88.18,21.91,89.3,22.77,90.51z"/>
</g>
</svg>
