<?xml version="1.0" encoding="utf-8"?>
<!-- Generator: Adobe Illustrator 25.0.0, SVG Export Plug-In . SVG Version: 6.00 Build 0)  -->
<svg version="1.1" id="Слой_1" xmlns="http://www.w3.org/2000/svg" xmlns:xlink="http://www.w3.org/1999/xlink" x="0px" y="0px"
	 viewBox="0 0 283.46 283.46" style="enable-background:new 0 0 283.46 283.46;" xml:space="preserve">
<g>
	<path d="M210.83,170.94c-1.29-0.83-2.12-1.66-2.1-3.45c0.1-11.53,0.07-23.06,0.07-34.59c-0.01-34.4,0.09-68.81-0.11-103.21
		c-0.06-10.67-5.08-19.13-14.18-24.63c-3.89-2.35-8.56-3.41-12.88-5.06c-2.4,0-4.8,0-7.2,0c-0.42,0.15-0.84,0.39-1.27,0.45
		c-8.44,1.24-15.05,5.52-20.14,12.24c-4.51,5.95-6.16,12.8-6.16,20.14c0,43.89-0.06,87.78,0.11,131.67
		c0.02,4.01-1.24,6.23-4.55,8.32c-7.66,4.87-13.44,11.69-17.76,19.61c-7.95,14.56-10.13,29.97-5.58,46.04
		c5.47,19.35,17.65,32.97,36.26,40.43c5.69,2.28,11.98,3.07,17.99,4.55c2.95,0,5.91,0,8.86,0c0.62-0.13,1.23-0.32,1.85-0.38
		c11.02-1.06,20.92-4.97,29.88-11.46c20.1-14.55,29.5-40.22,23.25-64.32C233.14,191.79,224.32,179.65,210.83,170.94z M215.18,254.05
		c-8.48,10.12-19.52,15.87-32.52,17.09c-19.94,1.88-39.09-7.89-48.36-26.68c-8.78-17.8-7.08-35.16,4.35-51.42
		c4.65-6.61,10.96-11.34,18.14-14.91c1.76-0.87,2.22-1.91,2.22-3.81c-0.05-41.69-0.05-83.39-0.01-125.08
		c0.01-7-0.05-14.02,0.51-20.99c0.67-8.34,7.97-15.17,16.33-16.03c8.68-0.89,17.08,4.23,19.66,12.34c0.84,2.65,1.12,5.58,1.13,8.39
		c0.09,23.06,0.05,46.12,0.05,69.19c0,23.98,0.03,47.97-0.05,71.95c-0.01,2.04,0.62,3.12,2.43,4.03
		c12.95,6.5,22.04,16.57,25.92,30.55C229.62,225.34,226.39,240.68,215.18,254.05z"/>
	<path d="M278.3,36.18c-15.59,0-30.95,0-46.33,0c0,4.03,0,7.86,0,11.79c15.57,0,30.99,0,46.33,0
		C278.3,43.88,278.3,39.98,278.3,36.18z"/>
	<path d="M231.98,88.79c0,4.04,0,7.87,0,11.76c15.58,0,31,0,46.48,0c0-3.97,0-7.74,0-11.76C262.81,88.79,247.39,88.79,231.98,88.79z
		"/>
	<path d="M232.03,153.29c15.5,0,30.79,0,46.29,0c0-4.14,0-8.04,0-11.79c-15.57,0-30.93,0-46.29,0
		C232.03,145.54,232.03,149.36,232.03,153.29z"/>
	<path d="M258.9,115.23c-9.03,0-17.85,0-26.94,0c0,4.12,0,7.96,0,11.86c9.05,0,17.95,0,26.94,0
		C258.9,123.05,258.9,119.16,258.9,115.23z"/>
	<path d="M258.96,74.43c0-4.02,0-7.83,0-11.8c-9.08,0-18.01,0-26.98,0c0,4.07,0,7.9,0,11.8C241.04,74.43,249.94,74.43,258.96,74.43z
		"/>
	<path d="M188.59,184.97c-2.41-0.74-2.95-1.85-2.94-4.23c0.08-42.43,0.06-84.85,0.06-127.28c0-1.15,0-2.3,0-3.45
		c-5.47,0-10.49,0-15.7,0c0,44.79,0,89.4,0,133.96c-1.82,0.61-3.46,1.14-5.08,1.71c-18.16,6.36-29.21,25.53-25.26,44.32
		c5.36,25.5,33.1,38.8,56.1,26.93c15.47-7.98,23.69-24.77,20.56-41.18C213.35,200.18,203.94,189.67,188.59,184.97z M174.28,205.41
		c-6.61,2.08-11.24,6.05-12.81,13.02c-0.36,1.59-0.36,3.27-0.74,4.86c-1,4.2-4.67,6.94-8.33,6.35c-4.35-0.7-6.96-3.97-6.83-8.55
		c0.01-0.28,0.05-0.55,0.05-0.64c0.57-15.01,11.03-26.6,24.68-29.92c4.37-1.06,8.47,1.54,9.55,5.78
		C180.85,200.19,178.57,204.06,174.28,205.41z"/>
	<path d="M37.04,242.58c-6.62,0-12-5.38-12-12V42.02c0-6.62,5.38-12,12-12h87.97c0.41-7.14,2.41-13.2,6.04-18.43H37.04
		c-16.78,0-30.43,13.65-30.43,30.43v188.56c0,16.78,13.65,30.43,30.43,30.43h70.52c-3.95-5.4-7.06-11.55-9.32-18.43H37.04z"/>
</g>
</svg>
