<?xml version="1.0" encoding="utf-8"?>
<!-- Generator: Adobe Illustrator 25.0.0, SVG Export Plug-In . SVG Version: 6.00 Build 0)  -->
<svg version="1.1" id="Слой_1" xmlns="http://www.w3.org/2000/svg" xmlns:xlink="http://www.w3.org/1999/xlink" x="0px" y="0px"
	 viewBox="0 0 283.46 283.46" style="enable-background:new 0 0 283.46 283.46;" xml:space="preserve">
<g>
	<path d="M268.08,7.13l-45.05,0c-6.3,0-11.39,5.12-11.39,11.42c0,1.92-0.04,3.61-0.16,4.65c-0.65,5.71-1.52,5.54-4.5,10.94
		c-4.34,7.84-6.63,16.49-6.76,25.15c-0.13,8.9,2.02,17.8,6.59,25.8c6.12,10.73,6.24,21.13,0.24,31.9
		c-9.47,16.98-9.63,34.21-0.13,51.25c6.03,10.82,5.94,21.31-0.07,32.12c-6.81,12.24-11.62,26.57-7.04,40.35
		c2.48,7.46-2.87,15.18-10.73,15.18H19.5c-6.29,0-11.39,5.1-11.39,11.39v0c0,6.29,5.09,11.38,11.37,11.38c33.68,0,133.84,0,187.74,0
		c19.41,0,40.77,0,60.81,0.08c6.31,0.02,11.42-5.08,11.42-11.39V18.52C279.46,12.23,274.37,7.13,268.08,7.13z M256.4,244.26
		c0,6.29-5.15,11.4-11.44,11.39c-3.62-0.01-7.23-0.03-10.83-0.09c-0.55-0.01-4.76-9.71-6.81-13.39
		c-6.17-11.05-6.03-21.88-0.03-32.97c8.99-16.63,8.82-33.36,0.02-50.09c-1.66-3.16-3.37-6.45-4.16-9.88
		c-1.82-7.87-0.29-15.25,3.74-22.38c9.49-16.78,9.43-33.84,0.28-50.75c-3-5.55-4.44-11.23-4.29-17.51
		c0.12-5.23,1.49-9.94,3.94-14.53c2.16-4.05,3.78-8.39,5.74-12.56c0.37-0.78,1.16-1.93,1.78-1.94c3.55-0.07,7.1-0.09,10.67-0.09
		c6.3-0.01,11.41,5.09,11.41,11.39V244.26z"/>
	<path d="M104.33,227.09C104.33,227.09,104.33,227.09,104.33,227.09c5.25,5.44,10.38,10.75,15.51,16.06c0,0,0,0,0.01,0
		c60.07-58.31,63.59-160.63-0.01-223.75c0,0,0,0-0.01,0c-5.3,5.5-10.59,11-15.88,16.51c0,0,0,0,0,0.01
		c25.67,27.07,39.17,58.83,39.14,95.91C143.05,168.88,129.52,200.63,104.33,227.09z"/>
	<path d="M64.54,187.54C64.54,187.54,64.54,187.54,64.54,187.54c5,5.03,10.21,10.25,15.42,15.48c0,0,0,0,0.01,0
		c40.91-39.97,37.8-107.25-1.01-143.73c0,0,0,0-0.01,0c-4.59,4.89-9.21,9.81-13.82,14.73c-0.37,0.39-0.72,0.8-0.79,0.88
		C95.46,112.71,95.51,150.12,64.54,187.54z"/>
	<path d="M24.33,146.96C24.33,146.96,24.33,146.97,24.33,146.96c5.43,5.43,10.68,10.69,15.93,15.94c0,0,0,0,0.01,0
		c17.39-17.05,16.91-46.69-0.21-63.19c0,0,0,0-0.01,0c-5.23,5.22-10.45,10.43-15.95,15.92c0,0,0,0,0,0.01
		c3.95,4.41,6.23,9.59,6.25,15.7C30.38,137.56,28.01,142.79,24.33,146.96z"/>
</g>
</svg>
