<?xml version="1.0" encoding="UTF-8"?>
<svg width="284px" height="64px" viewBox="0 0 284 64" version="1.1" xmlns="http://www.w3.org/2000/svg" xmlns:xlink="http://www.w3.org/1999/xlink">
    <!-- Generator: Sketch 39.1 (31720) - http://www.bohemiancoding.com/sketch -->
    <title>Logo</title>
    <desc>Created with Sketch.</desc>
    <defs>
        <polygon id="path-1" points="283.465 63.5791 283.465 0.0001 0.0002 0.0001 0.0002 63.5791 283.465 63.5791"></polygon>
    </defs>
    <g id="Page-1" stroke="none" stroke-width="1" fill="none" fill-rule="evenodd">
        <g id="01.-Compass---Desktop---Main-01" transform="translate(-578.000000, -508.000000)">
            <g id="Logo" transform="translate(578.000000, 508.000000)">
                <mask id="mask-2" fill="white">
                    <use xlink:href="#path-1"></use>
                </mask>
                <g id="Clip-2"></g>
                <path d="M59.4072,0.9541 L59.4072,8.6461 L59.4042,8.6461 L59.4042,8.6401 C57.6522,8.6411 56.0372,8.9411 54.5622,9.5391 C54.3312,9.6331 54.0982,9.7381 53.8632,9.8521 C52.6712,10.4321 51.5752,11.2191 50.5772,12.2111 L50.5742,12.2141 L50.5712,12.2161 C49.3782,13.4121 48.4822,14.7421 47.8882,16.2051 C47.2872,17.6831 46.9882,19.3021 46.9882,21.0631 L46.9932,21.0631 C46.9932,22.8271 47.2912,24.4431 47.8882,25.9091 C48.4802,27.3671 49.3782,28.6961 50.5772,29.8961 L50.5772,29.9021 C51.7692,31.0951 53.0992,31.9861 54.5642,32.5791 C56.0282,33.1711 57.6432,33.4661 59.4072,33.4661 L59.4072,41.1581 L59.4052,41.1581 L59.4052,41.1521 C56.6762,41.1521 54.1282,40.6521 51.7632,39.6561 C50.9602,39.3181 50.1922,38.9311 49.4602,38.4971 C47.9682,37.6131 46.5682,36.5171 45.2622,35.2111 C43.2832,33.2321 41.7992,31.0611 40.8052,28.6981 C39.8112,26.3311 39.3152,23.7851 39.3152,21.0631 L39.3212,21.0631 C39.3212,18.2751 39.8152,15.6941 40.8052,13.3191 C41.7982,10.9421 43.2842,8.7771 45.2652,6.8221 L45.2622,6.8191 L45.2662,6.8151 L45.2782,6.8091 C46.2662,5.8361 47.2972,4.9871 48.3682,4.2641 C49.4502,3.5331 50.5852,2.9211 51.7712,2.4291 C54.1382,1.4471 56.6852,0.9541 59.4072,0.9541 L59.4072,0.9541 Z M35.3182,10.3051 L31.6182,13.2401 L30.5142,14.1161 L29.5972,13.0511 C28.3212,11.5721 26.8982,10.4671 25.3242,9.7371 C23.7562,9.0101 22.0142,8.6461 20.0952,8.6461 L20.0892,8.6461 L20.0892,8.6401 C18.3372,8.6411 16.7222,8.9411 15.2472,9.5391 C15.0162,9.6331 14.7832,9.7381 14.5482,9.8521 C13.3552,10.4331 12.2582,11.2201 11.2592,12.2141 L11.2632,12.2161 C10.0632,13.4161 9.1662,14.7451 8.5732,16.2051 C7.9732,17.6831 7.6732,19.3021 7.6732,21.0631 L7.6792,21.0631 C7.6792,22.8271 7.9762,24.4431 8.5732,25.9091 C9.1682,27.3731 10.0632,28.7031 11.2572,29.8961 L11.2632,29.9021 C12.4542,31.0951 13.7842,31.9861 15.2492,32.5791 C16.7142,33.1711 18.3302,33.4661 20.0952,33.4661 C21.9892,33.4661 23.7022,33.1241 25.2312,32.4371 C26.7582,31.7521 28.1282,30.7141 29.3372,29.3211 L30.2462,28.2731 L31.3412,29.1201 L35.1372,32.0561 L36.3612,33.0021 L35.3502,34.1751 C34.3892,35.2901 33.3462,36.2781 32.2202,37.1361 C31.0862,38.0011 29.8672,38.7361 28.5612,39.3411 L28.5532,39.3451 C28.2052,39.5051 27.8332,39.6631 27.4392,39.8161 C27.0832,39.9541 26.7042,40.0881 26.3032,40.2151 C24.3262,40.8441 22.2562,41.1581 20.0952,41.1581 L20.0902,41.1581 L20.0902,41.1521 C17.3612,41.1521 14.8132,40.6521 12.4482,39.6561 C11.6462,39.3181 10.8772,38.9311 10.1452,38.4971 C8.6532,37.6131 7.2532,36.5171 5.9472,35.2111 C3.9682,33.2321 2.4842,31.0611 1.4912,28.6981 C0.4962,26.3311 0.0002,23.7851 0.0002,21.0631 L0.0062,21.0631 C0.0062,18.2751 0.5002,15.6941 1.4912,13.3191 C2.4832,10.9421 3.9692,8.7771 5.9502,6.8221 L5.9472,6.8191 L5.9512,6.8151 L5.9632,6.8091 C6.9512,5.8361 7.9822,4.9871 9.0532,4.2641 C10.1362,3.5331 11.2702,2.9211 12.4562,2.4291 C14.8252,1.4471 17.3722,0.9541 20.0952,0.9541 C21.6642,0.9541 23.1672,1.1091 24.6082,1.4201 C26.0352,1.7291 27.4062,2.1991 28.7232,2.8291 L28.7242,2.8271 L28.7292,2.8291 L28.7412,2.8341 C29.0942,3.0011 29.4552,3.1881 29.8232,3.3921 C30.1912,3.5971 30.5382,3.8041 30.8632,4.0121 C32.6022,5.1291 34.1652,6.5361 35.5422,8.2311 L36.4782,9.3841 L35.3182,10.3051 Z M135.8122,40.1151 L131.0732,40.1151 L129.6032,40.1151 L129.6032,38.6501 L129.6032,16.1471 L129.6032,16.1411 L129.6092,16.1411 C129.6092,14.9871 129.4192,13.9541 129.0442,13.0461 C128.9992,12.9351 128.9332,12.7941 128.8482,12.6241 C128.4932,11.9121 128.0112,11.2741 127.4032,10.7131 L127.4062,10.7111 C126.6522,10.0211 125.8342,9.5021 124.9512,9.1571 C124.0792,8.8171 123.1302,8.6461 122.1022,8.6461 C120.1152,8.6461 118.3552,9.3371 116.8352,10.7191 L116.8302,10.7251 C116.0862,11.3971 115.5302,12.1731 115.1632,13.0541 C114.7882,13.9551 114.6002,14.9871 114.6002,16.1471 L114.6002,38.6501 L114.6002,40.1151 L113.1312,40.1151 L108.3922,40.1151 L106.9222,40.1151 L106.9222,38.6501 L106.9222,16.1471 L106.9222,16.1411 L106.9282,16.1411 C106.9282,14.9871 106.7382,13.9541 106.3642,13.0461 C106.3192,12.9351 106.2532,12.7941 106.1682,12.6241 C105.8122,11.9121 105.3302,11.2741 104.7222,10.7131 L104.7252,10.7111 C103.9722,10.0211 103.1532,9.5021 102.2702,9.1571 C101.3992,8.8171 100.4502,8.6461 99.4212,8.6461 C97.4342,8.6461 95.6752,9.3371 94.1552,10.7191 L94.1492,10.7251 C93.4052,11.3961 92.8502,12.1731 92.4832,13.0541 C92.1082,13.9551 91.9202,14.9871 91.9202,16.1471 L91.9202,38.6501 L91.9202,40.1201 L90.4502,40.1201 L85.6982,40.1201 L84.2282,40.1201 L84.2282,38.6501 L84.2282,3.3801 L84.2282,0.3751 L86.6002,2.2251 L89.5892,4.5581 C89.6982,4.4651 89.8082,4.3741 89.9192,4.2841 C90.3682,3.9181 90.8232,3.5861 91.2832,3.2891 L91.2852,3.2931 C93.6992,1.7341 96.4122,0.9541 99.4212,0.9541 C101.9522,0.9541 104.3662,1.5581 106.6592,2.7651 L106.6622,2.7671 C107.0052,2.9481 107.3132,3.1231 107.5882,3.2921 L107.5882,3.2981 C107.8992,3.4901 108.1882,3.6821 108.4542,3.8711 C109.3352,4.4991 110.1192,5.2011 110.8082,5.9771 C111.2102,5.5171 111.6312,5.0891 112.0682,4.6901 C112.9742,3.8641 113.9542,3.1731 115.0082,2.6181 C117.1012,1.5141 119.4672,0.9601 122.1022,0.9601 L122.1022,0.9541 L122.1132,0.9541 L122.1132,0.9601 C123.2182,0.9601 124.2732,1.0671 125.2752,1.2731 C125.4402,1.3071 125.6052,1.3441 125.7692,1.3841 C126.6172,1.5891 127.4222,1.8651 128.1802,2.2061 L128.1922,2.2121 L128.1962,2.2141 L128.1952,2.2161 C128.4682,2.3411 128.7132,2.4601 128.9282,2.5711 C129.1712,2.6961 129.4092,2.8271 129.6382,2.9591 C130.8322,3.6501 131.8982,4.4671 132.8362,5.4051 L132.8362,5.4051 C133.4982,6.0601 134.0922,6.7791 134.6192,7.5541 C135.1422,8.3231 135.6102,9.1611 136.0242,10.0631 C136.4462,10.9841 136.7612,11.9541 136.9692,12.9731 C137.1782,13.9971 137.2822,15.0541 137.2822,16.1471 L137.2822,38.6501 L137.2822,40.1151 L135.8122,40.1151 Z M59.4072,41.1581 L59.4072,33.4661 L59.4102,33.4661 L59.4152,33.4661 L59.4152,33.4721 C61.1442,33.4721 62.7412,33.1691 64.2012,32.5681 C64.4482,32.4671 64.6802,32.3611 64.8992,32.2541 L64.8982,32.2521 C66.0862,31.6671 67.1882,30.8691 68.2052,29.8581 L68.2022,29.8551 C70.6182,27.4381 71.8262,24.5071 71.8262,21.0631 C71.8262,17.6021 70.6202,14.6711 68.2082,12.2711 L68.2022,12.2711 C66.9832,11.0521 65.6482,10.1421 64.1992,9.5451 C62.7472,8.9461 61.1502,8.6461 59.4102,8.6461 L59.4072,8.6461 L59.4072,0.9541 L59.4102,0.9541 L59.4152,0.9541 L59.4152,0.9601 C62.1972,0.9601 64.7752,1.4521 67.1492,2.4311 C67.5482,2.5951 67.9322,2.7681 68.2982,2.9501 C70.2372,3.9061 72.0172,5.1971 73.6402,6.8191 C75.5892,8.7681 77.0532,10.9361 78.0352,13.3251 C79.0122,15.7031 79.4992,18.2821 79.4992,21.0631 L79.5052,21.0631 C79.5052,23.7751 79.0162,26.3161 78.0352,28.6861 C77.0562,31.0501 75.5942,33.2221 73.6452,35.2001 L73.6402,35.2111 L73.6362,35.2151 L73.6332,35.2121 C73.0972,35.7541 72.5402,36.2651 71.9622,36.7411 C71.3802,37.2201 70.7832,37.6601 70.1722,38.0581 C67.0142,40.1191 63.4262,41.1521 59.4102,41.1521 L59.4102,41.1581 L59.4072,41.1581 Z M162.4722,0.9541 L162.4722,8.6461 L162.4692,8.6461 L162.4632,8.6461 L162.4632,8.6401 C160.7342,8.6411 159.1382,8.9431 157.6782,9.5461 C157.2162,9.7361 156.7472,9.9711 156.2722,10.2481 C155.3552,10.7841 154.4892,11.4591 153.6772,12.2711 L153.6712,12.2711 C152.4582,13.4781 151.5512,14.8091 150.9512,16.2641 C150.3512,17.7161 150.0522,19.3161 150.0522,21.0631 C150.0522,24.5071 151.2612,27.4381 153.6772,29.8551 L153.6802,29.8591 L153.6782,29.8621 C154.2792,30.4601 154.9202,30.9881 155.5962,31.4451 C156.2702,31.9001 156.9662,32.2751 157.6802,32.5691 C159.1322,33.1661 160.7282,33.4661 162.4692,33.4661 L162.4722,33.4661 L162.4722,41.1521 L162.4692,41.1521 L162.4692,41.1581 C159.5022,41.1581 156.7652,40.5951 154.2582,39.4711 C152.7682,38.8041 151.3662,37.9401 150.0522,36.8811 L150.0522,62.1091 L150.0522,63.5791 L148.5822,63.5791 L143.8302,63.5791 L142.3662,63.5791 L142.3662,62.1091 L142.3662,3.3801 L142.3662,0.0051 L144.8292,2.3061 L148.9862,6.1891 C149.2142,5.9821 149.4462,5.7801 149.6822,5.5821 L149.6822,5.5761 C150.2652,5.0871 150.8762,4.6281 151.5132,4.2041 C154.7602,2.0361 158.4142,0.9541 162.4692,0.9541 L162.4722,0.9541 Z M162.4722,41.1521 L162.4722,33.4661 C164.2362,33.4661 165.8502,33.1711 167.3142,32.5791 C168.7792,31.9861 170.1092,31.0941 171.3022,29.9021 L171.3072,29.8961 C172.5012,28.7031 173.3962,27.3731 173.9912,25.9091 C174.5872,24.4431 174.8862,22.8271 174.8862,21.0631 L174.8912,21.0631 C174.8912,19.3021 174.5912,17.6831 173.9912,16.2051 C173.3982,14.7451 172.5012,13.4161 171.3022,12.2161 L171.2982,12.2121 L171.3012,12.2091 C170.9662,11.8771 170.6172,11.5651 170.2582,11.2761 C169.9132,10.9991 169.5462,10.7371 169.1572,10.4901 C167.2252,9.2631 164.9972,8.6461 162.4722,8.6461 L162.4722,0.9541 L162.4742,0.9541 L162.4742,0.9601 C165.2562,0.9601 167.8342,1.4521 170.2072,2.4311 C170.6062,2.5951 170.9912,2.7681 171.3572,2.9501 C173.2952,3.9061 175.0762,5.1971 176.6982,6.8191 L176.6982,6.8251 C178.6432,8.7771 180.1082,10.9441 181.0892,13.3251 C182.0672,15.7021 182.5572,18.2811 182.5572,21.0631 L182.5632,21.0631 L182.5632,21.0681 L182.5572,21.0681 C182.5572,23.7931 182.0662,26.3361 181.0882,28.6951 C180.7632,29.4791 180.3812,30.2461 179.9452,30.9931 C179.0792,32.4781 177.9982,33.8811 176.7042,35.2001 L176.6982,35.2111 L176.6952,35.2151 L176.6912,35.2121 C176.1562,35.7541 175.5982,36.2651 175.0202,36.7411 C174.4382,37.2201 173.8422,37.6601 173.2302,38.0581 C170.0732,40.1191 166.4862,41.1521 162.4722,41.1521 L162.4722,41.1521 Z M206.9152,0.9541 L206.9152,8.6461 L206.9122,8.6461 L206.9122,8.6401 C205.1602,8.6411 203.5452,8.9411 202.0692,9.5391 C201.8392,9.6331 201.6052,9.7381 201.3702,9.8521 C200.1792,10.4321 199.0832,11.2191 198.0852,12.2111 L198.0822,12.2141 L198.0792,12.2161 C196.8862,13.4121 195.9902,14.7421 195.3952,16.2051 C194.7962,17.6831 194.4952,19.3021 194.4952,21.0631 L194.5012,21.0631 C194.5012,22.8271 194.8002,24.4431 195.3952,25.9091 C195.9882,27.3671 196.8862,28.6961 198.0852,29.8961 L198.0852,29.9021 C199.2772,31.0951 200.6072,31.9861 202.0722,32.5791 C203.5362,33.1711 205.1512,33.4661 206.9152,33.4661 L206.9152,41.1581 L206.9132,41.1581 L206.9132,41.1521 C204.1832,41.1521 201.6362,40.6521 199.2702,39.6561 C198.4682,39.3181 197.6992,38.9311 196.9682,38.4971 C195.4752,37.6131 194.0752,36.5171 192.7692,35.2111 C190.7912,33.2321 189.3062,31.0611 188.3132,28.6981 C187.3182,26.3311 186.8222,23.7851 186.8222,21.0631 L186.8292,21.0631 C186.8292,18.2751 187.3222,15.6941 188.3132,13.3191 C189.3052,10.9421 190.7912,8.7771 192.7722,6.8221 L192.7692,6.8191 L192.7732,6.8151 L192.7852,6.8091 C193.7742,5.8361 194.8052,4.9871 195.8762,4.2641 C196.9582,3.5331 198.0932,2.9211 199.2782,2.4291 C201.6462,1.4471 204.1922,0.9541 206.9152,0.9541 L206.9152,0.9541 Z M239.4852,30.4991 C239.9302,31.3881 240.5092,32.0481 241.2192,32.4771 C241.9322,32.9091 242.8172,33.1251 243.8712,33.1251 C245.2412,33.1251 246.3952,32.6671 247.3092,31.7531 C247.7812,31.2821 248.1282,30.7701 248.3512,30.2161 C248.5812,29.6491 248.6952,29.0111 248.6952,28.3001 L248.6952,28.2931 L248.7012,28.2931 C248.7012,27.7441 248.6182,27.2181 248.4552,26.7201 L248.4532,26.7211 C248.4132,26.5961 248.3852,26.5161 248.3712,26.4801 C248.2162,26.0821 248.0022,25.7001 247.7312,25.3361 L247.7322,25.3351 L247.7262,25.3291 C247.6312,25.2011 247.5362,25.0831 247.4452,24.9801 C247.3382,24.8591 247.2392,24.7551 247.1482,24.6701 C246.6472,24.1971 246.0582,23.8661 245.3842,23.6831 L245.3612,23.6711 L241.2232,22.4701 L241.2002,22.4641 C240.0182,22.0991 238.9512,21.5921 237.9972,20.9411 C237.0382,20.2881 236.1922,19.4901 235.4602,18.5451 L235.4602,18.5451 L235.4502,18.5351 C235.2632,18.2901 235.0762,18.0211 234.8902,17.7301 C234.7052,17.4381 234.5432,17.1581 234.4032,16.8891 C233.6402,15.4101 233.2522,13.8081 233.2522,12.0921 L233.2522,12.0861 L233.2582,12.0861 C233.2582,10.5951 233.5242,9.2111 234.0512,7.9381 C234.1412,7.7161 234.2352,7.5091 234.3302,7.3171 C234.8432,6.2801 235.5342,5.3291 236.3992,4.4631 L236.4052,4.4571 C237.4492,3.4141 238.6122,2.6291 239.8922,2.1021 C241.1792,1.5731 242.5592,1.3091 244.0342,1.3091 C245.0962,1.3091 246.1242,1.4601 247.1182,1.7601 C248.0962,2.0551 249.0432,2.5001 249.9612,3.0931 L249.9722,3.0931 C250.8832,3.6891 251.6712,4.3931 252.3402,5.2041 C253.0082,6.0161 253.5422,6.9171 253.9432,7.9091 L254.4852,9.2471 L253.1502,9.8091 L248.8362,11.6251 L247.4312,12.2161 L246.8942,10.7921 C246.6602,10.1701 246.3252,9.7171 245.8892,9.4341 C245.4322,9.1361 244.8142,8.9871 244.0342,8.9871 L244.0282,8.9871 L244.0282,8.9811 C243.5742,8.9821 243.1632,9.0601 242.7982,9.2141 C242.7812,9.2221 242.7272,9.2481 242.6342,9.2961 L242.6282,9.2961 C242.3402,9.4421 242.0722,9.6441 241.8252,9.9011 L241.8192,9.9071 C241.5182,10.2281 241.2972,10.5691 241.1532,10.9271 C241.0132,11.2771 240.9432,11.6661 240.9432,12.0921 L240.9432,12.0991 L240.9372,12.0991 C240.9382,12.5791 241.0042,13.0041 241.1332,13.3731 L241.1332,13.3781 C241.1832,13.5211 241.2392,13.6481 241.2992,13.7571 C241.6382,14.3691 242.2812,14.8101 243.2292,15.0761 L243.2402,15.0811 L247.3532,16.2761 L247.3542,16.2721 C248.6902,16.6351 249.9052,17.1831 250.9972,17.9201 C252.0822,18.6521 253.0432,19.5751 253.8772,20.6901 L253.8832,20.6951 C254.7092,21.8081 255.3312,22.9991 255.7472,24.2711 C256.1642,25.5441 256.3732,26.8881 256.3732,28.3001 L256.3732,28.3081 L256.3672,28.3081 C256.3672,29.4731 256.2282,30.5811 255.9542,31.6311 C255.9062,31.8131 255.8572,31.9861 255.8072,32.1461 C255.5372,33.0241 255.1712,33.8581 254.7122,34.6471 L254.7032,34.6611 L254.7042,34.6621 C254.5602,34.9061 254.3972,35.1591 254.2182,35.4201 L254.2192,35.4211 C254.0452,35.6761 253.8652,35.9181 253.6822,36.1461 C252.7252,37.3471 251.5682,38.3461 250.2122,39.1371 L250.2092,39.1391 C249.9692,39.2811 249.6972,39.4261 249.3932,39.5741 C249.1182,39.7091 248.8372,39.8341 248.5552,39.9461 C247.0932,40.5261 245.5292,40.8171 243.8712,40.8171 C242.7052,40.8171 241.5802,40.6641 240.4942,40.3601 C239.4262,40.0601 238.4012,39.6091 237.4252,39.0061 L237.4242,39.0071 L237.4212,39.0051 L237.4032,38.9931 C237.1022,38.8061 236.8372,38.6301 236.6092,38.4651 C236.3892,38.3061 236.1422,38.1111 235.8672,37.8791 C234.6302,36.8391 233.5952,35.5801 232.7642,34.1171 L232.0262,32.8151 L233.3452,32.1011 L237.4812,29.8621 L238.8072,29.1441 L239.4852,30.4991 Z M266.5772,30.4991 C267.0212,31.3881 267.5992,32.0481 268.3092,32.4771 C269.0242,32.9091 269.9092,33.1251 270.9622,33.1251 C272.3332,33.1251 273.4872,32.6671 274.4012,31.7531 C274.8722,31.2831 275.2192,30.7701 275.4432,30.2161 C275.6722,29.6491 275.7872,29.0111 275.7872,28.3011 L275.7872,28.2941 L275.7932,28.2941 C275.7922,27.7451 275.7092,27.2181 275.5462,26.7201 L275.5452,26.7211 C275.5042,26.5961 275.4752,26.5161 275.4622,26.4801 C275.3072,26.0821 275.0932,25.7001 274.8232,25.3361 L274.8242,25.3351 L274.8182,25.3301 C274.7222,25.2011 274.6282,25.0841 274.5362,24.9801 C274.4302,24.8601 274.3302,24.7561 274.2402,24.6711 C273.7392,24.1971 273.1492,23.8671 272.4742,23.6831 L272.4522,23.6721 L268.3142,22.4711 L268.2922,22.4641 C267.1102,22.1001 266.0422,21.5921 265.0882,20.9421 C264.1292,20.2891 263.2832,19.4911 262.5512,18.5461 L262.5522,18.5451 L262.5422,18.5351 C262.3542,18.2911 262.1682,18.0211 261.9812,17.7311 C261.7962,17.4391 261.6342,17.1591 261.4952,16.8901 C260.7312,15.4101 260.3432,13.8081 260.3432,12.0921 L260.3432,12.0861 L260.3482,12.0861 C260.3492,10.5951 260.6152,9.2111 261.1412,7.9381 C261.2332,7.7161 261.3272,7.5101 261.4222,7.3181 C261.9342,6.2811 262.6262,5.3291 263.4912,4.4631 L263.4972,4.4571 C264.5402,3.4141 265.7032,2.6291 266.9842,2.1021 C268.2702,1.5741 269.6502,1.3101 271.1262,1.3101 C272.1872,1.3101 273.2152,1.4611 274.2092,1.7601 C275.1862,2.0551 276.1352,2.5011 277.0522,3.0941 L277.0632,3.0941 C277.9732,3.6901 278.7622,4.3941 279.4302,5.2051 C280.0982,6.0161 280.6342,6.9171 281.0342,7.9091 L281.5762,9.2481 L280.2422,9.8101 L275.9272,11.6261 L274.5232,12.2161 L273.9862,10.7931 C273.7512,10.1711 273.4162,9.7181 272.9812,9.4341 C272.5242,9.1371 271.9052,8.9881 271.1262,8.9881 L271.1202,8.9881 L271.1202,8.9821 C270.6652,8.9821 270.2552,9.0601 269.8892,9.2151 C269.8732,9.2221 269.8192,9.2481 269.7242,9.2961 L269.7182,9.2961 C269.4312,9.4431 269.1632,9.6441 268.9172,9.9011 L268.9172,9.9021 L268.9112,9.9081 C268.6102,10.2281 268.3882,10.5691 268.2452,10.9281 C268.1042,11.2781 268.0352,11.6661 268.0352,12.0921 L268.0352,12.1001 L268.0292,12.1001 C268.0292,12.5791 268.0942,13.0051 268.2242,13.3731 L268.2242,13.3791 C268.2742,13.5221 268.3302,13.6491 268.3892,13.7571 C268.7282,14.3701 269.3732,14.8111 270.3202,15.0771 L270.3322,15.0821 L274.4442,16.2771 L274.4462,16.2721 C275.7812,16.6351 276.9962,17.1831 278.0882,17.9211 C279.1742,18.6531 280.1342,19.5761 280.9682,20.6901 L280.9732,20.6961 C281.8002,21.8081 282.4232,22.9991 282.8392,24.2711 C283.2562,25.5451 283.4652,26.8881 283.4652,28.3011 L283.4652,28.3081 L283.4592,28.3081 C283.4582,29.4741 283.3192,30.5821 283.0452,31.6311 C282.9982,31.8141 282.9482,31.9871 282.8992,32.1471 C282.6282,33.0251 282.2622,33.8591 281.8032,34.6471 L281.7942,34.6621 L281.7952,34.6621 C281.6512,34.9061 281.4882,35.1601 281.3082,35.4211 L281.3102,35.4221 C281.1362,35.6761 280.9572,35.9181 280.7742,36.1471 C279.8172,37.3481 278.6592,38.3471 277.3032,39.1371 L277.3002,39.1401 C277.0602,39.2811 276.7882,39.4271 276.4852,39.5751 C276.2092,39.7101 275.9292,39.8341 275.6462,39.9461 C274.1842,40.5271 272.6202,40.8171 270.9622,40.8171 C269.7972,40.8171 268.6712,40.6651 267.5852,40.3601 C266.5162,40.0611 265.4932,39.6091 264.5152,39.0061 L264.5152,39.0071 L264.5122,39.0051 L264.4952,38.9941 C264.1932,38.8071 263.9282,38.6301 263.7012,38.4661 C263.4812,38.3071 263.2332,38.1111 262.9582,37.8801 C261.7212,36.8391 260.6852,35.5801 259.8552,34.1181 L259.1172,32.8151 L260.4352,32.1021 L264.5722,29.8621 L265.8992,29.1441 L266.5772,30.4991 Z M206.9152,41.1581 L206.9152,33.4661 L206.9182,33.4661 L206.9242,33.4661 L206.9242,33.4721 C208.6522,33.4721 210.2492,33.1691 211.7092,32.5681 C211.9552,32.4671 212.1882,32.3611 212.4072,32.2541 L212.4062,32.2521 C213.5942,31.6671 214.6962,30.8691 215.7132,29.8581 L215.7102,29.8551 C218.1262,27.4381 219.3352,24.5071 219.3352,21.0631 C219.3352,17.6021 218.1282,14.6711 215.7162,12.2711 L215.7102,12.2711 C214.4912,11.0521 213.1552,10.1421 211.7072,9.5451 C210.2552,8.9461 208.6572,8.6461 206.9182,8.6461 L206.9152,8.6461 L206.9152,0.9541 L206.9182,0.9541 L206.9232,0.9541 L206.9232,0.9601 C209.7452,0.9601 212.3692,1.4811 214.7882,2.5211 C215.1632,2.6831 215.5552,2.8691 215.9612,3.0771 C217.5292,3.8841 219.0062,4.9211 220.3882,6.1871 L224.5442,2.3061 L227.0132,0.0001 L227.0132,3.3801 L227.0132,38.6501 L227.0132,41.9801 L224.5552,39.7301 L220.3992,35.9251 C220.1672,36.1391 219.9322,36.3461 219.6952,36.5441 C219.1142,37.0341 218.5042,37.4901 217.8692,37.9131 C214.6272,40.0771 210.9722,41.1581 206.9182,41.1581 L206.9152,41.1581 Z" id="Fill-1" fill="#9ECB3A" mask="url(#mask-2)"></path>
            </g>
        </g>
    </g>
</svg>