<svg width="127" height="43" viewBox="0 0 127 43" fill="none" xmlns="http://www.w3.org/2000/svg">
<path fill-rule="evenodd" clip-rule="evenodd" d="M39.6016 14.1733L37.2928 11.8679C36.5946 11.0759 35.574 10.5766 34.437 10.5766C32.3316 10.5766 30.6251 12.2884 30.6251 14.4001C30.6251 15.8656 31.4471 17.1385 32.654 17.7803L42.904 23.9876C42.6736 25.9582 42.1694 27.8916 41.4034 29.7316C40.317 32.3413 38.7248 34.712 36.7175 36.709C34.7103 38.7056 32.3271 40.2887 29.705 41.3681C27.0828 42.4476 24.2726 43.002 21.435 43C17.2787 43 13.2106 41.8066 9.71853 39.5629C6.22646 37.3192 3.45857 34.1203 1.74677 30.35L3.28775 28.8157L5.60716 31.1319C6.30556 31.9241 7.32639 32.4232 8.46355 32.4232C10.5687 32.4232 12.2754 30.7115 12.2754 28.6001C12.2754 27.1347 11.4536 25.862 10.2472 25.2201L0 19.0146C0.559527 14.2275 2.7236 9.73899 6.1809 6.29721C10.2311 2.26518 15.7243 6.42234e-06 21.4522 6.42234e-06C25.608 -0.00319008 29.6768 1.18689 33.17 3.42756C36.6636 5.66823 39.4341 8.86445 41.1488 12.633L39.6016 14.1733Z" fill="#E42734"/>
<path d="M62.8667 37.412L60.5097 34.0298H57.9096V37.412H55.084V25.2554H60.3708C63.6295 25.2554 65.6748 26.981 65.6748 29.6641C65.7087 30.485 65.4848 31.2956 65.0345 31.9836C64.5839 32.6717 63.9294 33.2032 63.1617 33.5036L65.9003 37.412H62.8667ZM60.2147 27.5504H57.9096V31.7865H60.2147C61.9482 31.7865 62.8148 30.9841 62.8148 29.6641C62.8148 28.3441 61.9397 27.5504 60.2147 27.5504Z" fill="#0C4B86"/>
<path d="M76.8549 33.5044H69.7565C69.9036 34.086 70.2562 34.5953 70.7493 34.9392C71.2429 35.283 71.8443 35.4383 72.4432 35.3764C72.8747 35.3994 73.3061 35.3351 73.7114 35.1867C74.1167 35.0384 74.4873 34.8093 74.8006 34.5138L76.2482 36.0756C75.7526 36.594 75.1487 36.9976 74.4795 37.2587C73.8103 37.5197 73.0916 37.6312 72.3742 37.5853C69.1326 37.5853 67.0179 35.5576 67.0179 32.7709C67.0102 32.1222 67.1356 31.4788 67.3868 30.88C67.6385 30.2817 68.0099 29.7403 68.4793 29.2904C68.9488 28.84 69.5057 28.4904 70.1156 28.2622C70.726 28.0343 71.3765 27.9335 72.0273 27.9651C72.6753 27.9294 73.3237 28.0294 73.9304 28.2585C74.5371 28.4876 75.0891 28.8408 75.5503 29.2953C76.012 29.7498 76.3724 30.2952 76.6089 30.8968C76.8455 31.4984 76.9529 32.1426 76.9239 32.7881C76.9239 32.9864 76.872 33.2799 76.8549 33.5044ZM69.7222 31.9254H74.3242C74.2348 31.3796 73.9537 30.8829 73.5304 30.5247C73.1071 30.1665 72.5699 29.9698 72.0142 29.9698C71.459 29.9698 70.9213 30.1665 70.4985 30.5247C70.0752 30.8829 69.7937 31.3796 69.7046 31.9254H69.7222Z" fill="#0C4B86"/>
<path d="M94.5784 32.063V37.4126H91.857V32.4859C91.857 30.9762 91.1722 30.2771 90.0801 30.2771C88.9884 30.2771 88.0001 31.0623 88.0001 32.7273V37.4126H85.2787V32.4859C85.2787 30.9762 84.6287 30.2771 83.5023 30.2771C82.3754 30.2771 81.448 31.0623 81.448 32.7273V37.4126H78.7266V28.0686H81.3267V29.1468C81.6997 28.7436 82.1569 28.4255 82.6655 28.2157C83.1746 28.0055 83.7233 27.908 84.2736 27.9305C84.8714 27.901 85.4662 28.0264 86.001 28.294C86.5354 28.5616 86.9914 28.9624 87.3244 29.4574C87.7333 28.9632 88.2506 28.569 88.8365 28.3042C89.4223 28.0395 90.0613 27.9116 90.7044 27.9305C92.9752 27.9305 94.5784 29.2161 94.5784 32.063Z" fill="#0C4B86"/>
<path d="M96.4248 32.7443C96.4248 29.9318 98.6086 27.9385 101.625 27.9385C104.641 27.9385 106.773 29.9318 106.773 32.7443C106.773 35.5572 104.606 37.5587 101.625 37.5587C98.6433 37.5587 96.4248 35.5572 96.4248 32.7443ZM103.973 32.7443C103.936 32.2792 103.764 31.8345 103.477 31.4657C103.19 31.0969 102.801 30.819 102.358 30.667C101.914 30.5145 101.436 30.4945 100.982 30.6088C100.527 30.7231 100.116 30.9666 99.7987 31.3104C99.4813 31.6538 99.2713 32.082 99.1949 32.5423C99.1181 33.0029 99.1781 33.4754 99.3673 33.9024C99.5564 34.3294 99.8669 34.6921 100.26 34.9462C100.653 35.2003 101.113 35.3347 101.581 35.3327C101.916 35.3392 102.248 35.2753 102.555 35.1446C102.863 35.0142 103.139 34.8204 103.366 34.5757C103.593 34.3311 103.765 34.0413 103.871 33.7258C103.978 33.4102 104.015 33.0754 103.982 32.7443H103.973Z" fill="#0C4B86"/>
<path d="M118.143 32.0637V37.4129H115.422V32.4862C115.422 30.9765 114.728 30.2778 113.524 30.2778C112.319 30.2778 111.27 31.0802 111.27 32.7969V37.4129H108.549V28.0689H111.149V29.1647C111.551 28.7541 112.034 28.432 112.569 28.2193C113.104 28.007 113.677 27.9087 114.252 27.9308C116.471 27.9308 118.143 29.2164 118.143 32.0637Z" fill="#0C4B86"/>
<path d="M126.654 36.964C125.991 37.3771 125.218 37.5816 124.436 37.5504C122.217 37.5504 120.969 36.4202 120.969 34.2027V30.3636H119.521V28.2757H120.969V26.0063H123.69V28.2843H126.03V30.3722H123.69V34.1683C123.672 34.3244 123.689 34.483 123.739 34.6322C123.789 34.7814 123.87 34.9182 123.978 35.033C124.086 35.1477 124.218 35.2379 124.364 35.2973C124.51 35.3567 124.668 35.3834 124.825 35.3764C125.22 35.3817 125.606 35.2608 125.926 35.0314L126.654 36.964Z" fill="#0C4B86"/>
<path d="M54.8252 16.6362L55.787 14.5137C56.9722 15.3297 58.3764 15.7716 59.817 15.782C61.4897 15.782 62.1744 15.2299 62.1744 14.4792C62.1744 12.2015 55.0765 13.7631 55.0765 9.25072C55.0765 7.18 56.7491 5.46307 60.2244 5.46307C61.7091 5.4334 63.1742 5.8062 64.4624 6.54152L63.5958 8.68125C62.5613 8.0906 61.3912 7.77558 60.1986 7.76673C58.5255 7.76673 57.8755 8.38791 57.8755 9.15581C57.8755 11.3991 64.9739 9.85466 64.9739 14.3326C64.9739 16.3601 63.2404 18.103 59.7737 18.103C58.0128 18.1259 56.2866 17.6143 54.8252 16.6362Z" fill="#0C4B86"/>
<path d="M82.5751 12.4864V17.8357H79.8536V12.9437C79.8536 11.4338 79.1689 10.7349 78.0768 10.7349C76.9851 10.7349 75.9968 11.5201 75.9968 13.1852V17.8702H73.2843V12.9437C73.2843 11.4338 72.6343 10.7349 71.5075 10.7349C70.3807 10.7349 69.4536 11.5201 69.4536 13.1852V17.8702H66.7236V8.49166H69.3233V9.57015C69.6967 9.16666 70.1535 8.84885 70.6622 8.63878C71.1712 8.42871 71.7199 8.33138 72.2703 8.3536C72.8737 8.31831 73.476 8.44068 74.0169 8.70857C74.5582 8.97642 75.0195 9.38053 75.3557 9.88075C75.7647 9.3866 76.282 8.99212 76.8678 8.72742C77.4537 8.46277 78.0927 8.33491 78.7358 8.3536C80.9719 8.3536 82.5751 9.63916 82.5751 12.4864Z" fill="#0C4B86"/>
<path d="M93.322 12.5035V17.8356H90.7914V16.6708C90.4764 17.124 90.0445 17.4843 89.5412 17.7136C89.0378 17.9428 88.4818 18.0327 87.9314 17.9737C85.7297 17.9737 84.4644 16.7571 84.4644 15.1437C84.4644 13.5303 85.6345 12.3483 88.4944 12.3483H90.6614C90.6614 11.1835 89.9681 10.5105 88.4944 10.5105C87.5237 10.5011 86.5754 10.8037 85.7906 11.3733L84.7246 9.49238C85.9311 8.72383 87.3398 8.33037 88.7718 8.36213C91.6579 8.35353 93.322 9.6736 93.322 12.5035ZM90.6006 14.8848V13.9272H88.7371C87.4632 13.9272 87.0645 14.3931 87.0645 15.0229C87.0645 15.6527 87.6364 16.1532 88.5986 16.1532C89.0243 16.1819 89.4484 16.0743 89.8088 15.8461C90.1687 15.618 90.4465 15.2811 90.6006 14.8848Z" fill="#0C4B86"/>
<path d="M101.608 8.35354V10.7866C99.3807 10.7866 98.5051 11.6494 98.5051 13.4268V17.8357H95.7837V8.49161H98.3838V9.72538C98.7703 9.255 99.2655 8.88457 99.8268 8.6457C100.388 8.40682 100.999 8.30662 101.608 8.35354Z" fill="#0C4B86"/>
<path d="M109.616 17.3871C108.952 17.8004 108.179 18.0049 107.397 17.9739C105.178 17.9739 103.93 16.8436 103.93 14.6262V10.7868H102.483V8.6988H103.93V6.42969H106.651V8.70745H108.992V10.7868H106.651V14.5917C106.629 14.753 106.643 14.9174 106.693 15.0726C106.743 15.2277 106.827 15.3698 106.939 15.4882C107.051 15.6067 107.189 15.6985 107.342 15.7569C107.495 15.8152 107.659 15.8387 107.822 15.8255C108.216 15.8311 108.602 15.7101 108.922 15.4804L109.616 17.3871Z" fill="#0C4B86"/>
</svg>
