<svg xmlns="http://www.w3.org/2000/svg" viewBox="0 0 100 100" fill="none">
  <g clip-path="url(#clip)">
    <path d="M29.73 22.55C28.16 24.71 26.98 27.08 26.21 29.56C29.96 30.08 33.51 31.65 36.36 34.15C44.79 41.54 57.53 42.27 66.84 35.25C69.03 33.6 70.87 31.64 72.32 29.48C71.53 26.98 70.3 24.56 68.64 22.33C62.13 13.59 50.76 10.53 40.95 14.11" stroke="#EBAD04" stroke-width="4" stroke-linejoin="round" stroke-linecap="round"/>
    <path d="M78.12 35.52C71.98 27.29 62.17 21.96 51.11 21.96C47.69 21.96 44.38 22.47 41.27 23.42" stroke="#EBAD04" stroke-width="4" stroke-linejoin="round" stroke-linecap="round"/>
    <path d="M56.41 28.9L62.47 23.93" stroke="#EBAD04" stroke-width="4" stroke-linejoin="round" stroke-linecap="round"/>
    <path d="M51.88 21.97L47.87 18.44" stroke="#EBAD04" stroke-width="4" stroke-linejoin="round" stroke-linecap="round"/>
    <path d="M40.63 86.16C39.21 82.65 38.79 78.79 39.53 75.08C41.72 64.07 35.98 52.68 25.24 48.13C22.71 47.05 20.1 46.45 17.51 46.26C15.73 48.21 14.25 50.47 13.15 53.02C7.87 65.26 13.59 79.55 25.94 84.82C30.76 86.88 35.88 87.23 40.63 86.16Z" stroke="#EBAD04" stroke-width="4" stroke-linejoin="round"/>
    <path d="M19.84 38.22C15.78 47.65 16.07 58.82 21.6 68.39C23.31 71.36 25.41 73.96 27.78 76.18" stroke="#EBAD04" stroke-width="4" stroke-linejoin="round" stroke-linecap="round"/>
    <path d="M24.95 60.33L17.62 57.57" stroke="#EBAD04" stroke-width="4" stroke-linejoin="round" stroke-linecap="round"/>
    <path d="M21.22 67.72L20.17 72.96" stroke="#EBAD04" stroke-width="4" stroke-linejoin="round" stroke-linecap="round"/>
    <path d="M82.44 45.37C80.11 48.36 76.98 50.64 73.39 51.86C62.77 55.47 55.77 66.14 57.19 77.71C57.53 80.44 58.31 83.01 59.45 85.35C62.02 85.91 64.72 86.06 67.48 85.73C80.71 84.19 90.23 72.09 88.62 58.76C88 53.56 85.74 48.95 82.44 45.37Z" stroke="#EBAD04" stroke-width="4" stroke-linejoin="round"/>
    <path d="M51.32 87.35C61.52 86.14 71.04 80.31 76.56 70.73C78.28 67.77 79.48 64.65 80.22 61.48" stroke="#EBAD04" stroke-width="4" stroke-linejoin="round" stroke-linecap="round"/>
    <path d="M67.91 71.86L69.18 79.59" stroke="#EBAD04" stroke-width="4" stroke-linejoin="round" stroke-linecap="round"/>
    <path d="M76.17 71.4L81.24 69.69" stroke="#EBAD04" stroke-width="4" stroke-linejoin="round" stroke-linecap="round"/>
  </g>
  <defs>
    <clipPath id="clip">
      <rect width="99" height="99" rx="0.5" transform="translate(0.5 0.5)" fill="white"/>
    </clipPath>
  </defs>
</svg>
